<?xml version="1.0" encoding="UTF-8" standalone="no"?>
<svg
   viewBox="0 0 640 640"
   version="1.1"
   id="svg1"
   sodipodi:docname="favicon.svg"
   inkscape:version="1.4.2 (ebf0e940, 2025-05-08)"
   xmlns:inkscape="http://www.inkscape.org/namespaces/inkscape"
   xmlns:sodipodi="http://sodipodi.sourceforge.net/DTD/sodipodi-0.dtd"
   xmlns="http://www.w3.org/2000/svg"
   xmlns:svg="http://www.w3.org/2000/svg">
  <defs
     id="defs1" />
  <sodipodi:namedview
     id="namedview1"
     pagecolor="#ffffff"
     bordercolor="#000000"
     borderopacity="0.25"
     inkscape:showpageshadow="2"
     inkscape:pageopacity="0.0"
     inkscape:pagecheckerboard="0"
     inkscape:deskcolor="#d1d1d1"
     inkscape:zoom="0.87527004"
     inkscape:cx="332.46882"
     inkscape:cy="345.03637"
     inkscape:window-width="1448"
     inkscape:window-height="877"
     inkscape:window-x="53"
     inkscape:window-y="34"
     inkscape:window-maximized="0"
     inkscape:current-layer="svg1" />
  <rect
     style="fill:#ffffff;stroke-width:0.545;fill-opacity:1"
     id="rect2"
     width="335.54041"
     height="116.46808"
     x="140.884"
     y="414.79654" />
  <!--!Font Awesome Free 7.0.0 by @fontawesome - https://fontawesome.com License - https://fontawesome.com/license/free Copyright 2025 Fonticons, Inc.-->
  <path
     d="M192 576L512 576C529.7 576 544 561.7 544 544C544 526.3 529.7 512 512 512L512 445.3C530.6 438.7 544 420.9 544 400L544 112C544 85.5 522.5 64 496 64L192 64C139 64 96 107 96 160L96 480C96 533 139 576 192 576zM160 480C160 462.3 174.3 448 192 448L448 448L448 512L192 512C174.3 512 160 497.7 160 480zM368 227.2L368 240C368 248.8 360.8 256 352 256L288 256C279.2 256 272 248.8 272 240L272 227.2C252.6 215.5 240 196.9 240 176C240 140.7 275.8 112 320 112C364.2 112 400 140.7 400 176C400 196.9 387.4 215.5 368 227.2zM304 176C304 167.2 296.8 160 288 160C279.2 160 272 167.2 272 176C272 184.8 279.2 192 288 192C296.8 192 304 184.8 304 176zM352 192C360.8 192 368 184.8 368 176C368 167.2 360.8 160 352 160C343.2 160 336 167.2 336 176C336 184.8 343.2 192 352 192zM426.2 287.7C430.8 297.8 426.3 309.6 416.3 314.2L368.4 336L416.3 357.8C426.4 362.4 430.8 374.2 426.2 384.3C421.6 394.4 409.8 398.8 399.7 394.2L320 358L240.3 394.2C230.2 398.8 218.4 394.3 213.8 384.3C209.2 374.3 213.7 362.4 223.7 357.8L271.6 336L223.7 314.2C213.6 309.6 209.2 297.8 213.8 287.7C218.4 277.6 230.2 273.2 240.3 277.8L320 314L399.7 277.8C409.8 273.2 421.6 277.7 426.2 287.7z"
     id="path1" />
  <rect
     style="fill:#000000;fill-rule:nonzero;stroke:none;stroke-width:0.545;stroke-dasharray:none;stroke-opacity:1"
     id="rect1"
     width="340.9668"
     height="335.81253"
     x="140.884"
     y="78.984001" />
  <path
     d="m 417.97081,129.04441 c 4.35327,-1.55474 9.15075,-0.44421 12.43792,2.79853 3.28716,3.24274 4.35327,8.08464 2.79853,12.43791 l -79.06962,220.72862 c -2.22107,6.17454 -8.04024,10.26128 -14.57013,10.26128 -6.3078,0 -11.99371,-3.82022 -14.34803,-9.63939 l -28.51837,-70.18539 c -1.99895,-4.88633 -1.11053,-10.48337 2.3099,-14.48129 l 41.97798,-49.92936 c 2.26548,-2.70968 2.08778,-6.66317 -0.39979,-9.15075 -2.48757,-2.48756 -6.4855,-2.66526 -9.15076,-0.39978 l -49.92936,41.88914 c -4.04232,3.376 -9.59496,4.26441 -14.48129,2.30988 L 196.6203,237.03218 c -5.81917,-2.35432 -9.63939,-8.04023 -9.63939,-14.34802 0,-6.52991 4.08674,-12.34909 10.26129,-14.57013 z"
     id="path1-7"
     style="fill:#ffffff;fill-rule:nonzero;stroke:none;stroke-width:0.443847;stroke-dasharray:none;stroke-opacity:1" />
</svg>
